<svg id="d956638f-40be-4a17-9d3c-5e0b35c30df3" data-name="Layer 1" xmlns="http://www.w3.org/2000/svg" width="400.36" height="305.33" viewBox="0 0 400.36 305.33"><title>icon-residential-services</title><path d="M404.7,402.8H91.2a43.48,43.48,0,0,1-43.43-43.43v-33A43.48,43.48,0,0,1,91.2,282.94H328.28V177.87a10.43,10.43,0,0,1,20.86,0V282.94H404.7a43.48,43.48,0,0,1,43.43,43.43v33A43.48,43.48,0,0,1,404.7,402.8ZM91.2,287.3a39.12,39.12,0,0,0-39.07,39.07v33A39.12,39.12,0,0,0,91.2,398.44H404.7a39.12,39.12,0,0,0,39.07-39.07v-33A39.12,39.12,0,0,0,404.7,287.3H344.78V177.87a6.07,6.07,0,1,0-12.15,0V287.3H91.2Zm313.5,99H91.2a27,27,0,0,1-26.93-26.92v-33A27,27,0,0,1,91.2,299.44H404.7a27,27,0,0,1,26.93,26.93v33A27,27,0,0,1,404.7,386.3ZM91.2,303.8a22.6,22.6,0,0,0-22.57,22.57v33A22.6,22.6,0,0,0,91.2,381.94H404.7a22.6,22.6,0,0,0,22.58-22.57v-33A22.6,22.6,0,0,0,404.7,303.8H91.2Zm297,49.5H305.7a10.43,10.43,0,0,1,0-20.85h82.5A10.43,10.43,0,1,1,388.2,353.3Zm-82.5-16.5a6.07,6.07,0,0,0,0,12.15h82.5a6.07,6.07,0,1,0,0-12.15H305.7Zm-49.5,16.5a10.43,10.43,0,1,1,10.43-10.43A10.44,10.44,0,0,1,256.2,353.3Zm0-16.5a6.07,6.07,0,1,0,6.07,6.07A6.08,6.08,0,0,0,256.2,336.8Zm-49.5,16.5a10.43,10.43,0,1,1,10.43-10.43A10.44,10.44,0,0,1,206.7,353.3Zm0-16.5a6.07,6.07,0,1,0,6.07,6.07A6.08,6.08,0,0,0,206.7,336.8Zm-49.5,16.5a10.43,10.43,0,1,1,10.43-10.43A10.44,10.44,0,0,1,157.2,353.3Zm0-16.5a6.07,6.07,0,1,0,6.07,6.07A6.08,6.08,0,0,0,157.2,336.8Zm-49.5,16.5a10.43,10.43,0,1,1,10.43-10.43A10.44,10.44,0,0,1,107.7,353.3Zm0-16.5a6.07,6.07,0,1,0,6.07,6.07A6.08,6.08,0,0,0,107.7,336.8Zm301-78.49a10.42,10.42,0,0,1-7.38-17.79,88.66,88.66,0,0,0,0-125.26,10.43,10.43,0,0,1,14.74-14.75,109.55,109.55,0,0,1,0,154.75h0A10.35,10.35,0,0,1,408.71,258.3Zm0-156.49a6.07,6.07,0,0,0-4.29,10.36,93,93,0,0,1,0,131.42,6.08,6.08,0,0,0,0,8.59,6.25,6.25,0,0,0,8.59,0,105.19,105.19,0,0,0,0-148.59A6,6,0,0,0,408.71,101.82Zm-140,156.49a10.4,10.4,0,0,1-7.37-3,109.55,109.55,0,0,1,0-154.75,10.43,10.43,0,0,1,14.74,14.74h0a88.66,88.66,0,0,0,0,125.26A10.42,10.42,0,0,1,268.69,258.3Zm0-156.49a6,6,0,0,0-4.29,1.78,105.2,105.2,0,0,0,0,148.59,6.25,6.25,0,0,0,8.59,0,6.08,6.08,0,0,0,0-8.59,93,93,0,0,1,0-131.42h0A6.07,6.07,0,0,0,268.69,101.82ZM385.38,235A10.42,10.42,0,0,1,378,217.18a55.67,55.67,0,0,0,0-78.6,10.42,10.42,0,0,1,14.74-14.74h0a76.54,76.54,0,0,1,0,108.08A10.4,10.4,0,0,1,385.38,235Zm0-109.83a6.07,6.07,0,0,0-4.29,10.36,60,60,0,0,1,0,84.75,6.08,6.08,0,0,0,0,8.59,6.23,6.23,0,0,0,8.59,0,72.18,72.18,0,0,0,0-101.92A6,6,0,0,0,385.38,125.15ZM292,235a10.42,10.42,0,0,1-7.37-3,76.54,76.54,0,0,1,0-108.09,10.43,10.43,0,0,1,14.74,14.74h0a55.67,55.67,0,0,0,0,78.6A10.42,10.42,0,0,1,292,235Zm0-109.83a6,6,0,0,0-4.29,1.78,72.18,72.18,0,0,0,0,101.93,6.24,6.24,0,0,0,8.59,0,6.08,6.08,0,0,0,0-8.59,60,60,0,0,1,0-84.75h0A6.07,6.07,0,0,0,292,125.15Zm70,86.48a10.42,10.42,0,0,1-7.38-17.79,22.58,22.58,0,0,0,0-31.94,10.43,10.43,0,0,1,14.75-14.74,43.45,43.45,0,0,1,0,61.42A10.37,10.37,0,0,1,362,211.63Zm0-63.17a6.07,6.07,0,0,0-4.29,10.36,26.93,26.93,0,0,1,0,38.09,6.08,6.08,0,0,0,0,8.58,6.26,6.26,0,0,0,8.6,0,39.09,39.09,0,0,0,0-55.27A6.06,6.06,0,0,0,362,148.46Zm-46.67,63.17a10.41,10.41,0,0,1-7.37-3,43.45,43.45,0,0,1,0-61.43,10.43,10.43,0,0,1,14.74,14.75,22.6,22.6,0,0,0,0,31.93h0A10.42,10.42,0,0,1,315.37,211.63Zm0-63.17a6,6,0,0,0-4.29,1.78,39.09,39.09,0,0,0,0,55.27,6.24,6.24,0,0,0,8.58,0,6.07,6.07,0,0,0,0-8.59h0a27,27,0,0,1,0-38.09A6.07,6.07,0,0,0,315.36,148.46Z" transform="translate(-47.78 -97.46)" style="fill:#44c8f5"/></svg>